<svg xmlns="http://www.w3.org/2000/svg" viewBox="0 0 410 404">
  <defs>
    <linearGradient id="a" x1="53.8" x2="131.2" y1="41.3" y2="118.7" gradientUnits="userSpaceOnUse">
      <stop stop-color="#41d1ff" />
      <stop offset="1" stop-color="#bd34fe" />
    </linearGradient>
    <linearGradient id="b" x1="85.7" x2="150.2" y1="65.3" y2="130.9" gradientUnits="userSpaceOnUse">
      <stop stop-color="#ffea83" />
      <stop offset=".083" stop-color="#ffdd35" />
      <stop offset="1" stop-color="#ffa800" />
    </linearGradient>
  </defs>
  <path fill="#000" d="m399.6 59.6-183.5 326c-3.8 6.7-13.5 6.7-17.3 0L15.4 59.6c-4.2-7.4 1.3-16.5 9.7-16.5H389.9c8.4 0 13.7 9.1 9.7 16.5Z" />
  <path fill="#fff" d="m292.1 74.3-86.8 157.6c-3.7 6.7-13.4 6.7-17.1 0L101.3 74.3c-4.2-7.5 1.3-16.7 9.7-16.7h171.4c8.4 0 13.8 9.2 9.7 16.7Z" />
  <path fill="url(#a)" d="M215.6 0h86.2L175.7 273a9.9 9.9 0 0 1-17.1 0L71.1 106.6c-4.2-7.5 1.3-16.6 9.7-16.6h104.8L215.6 0Z" />
  <path fill="url(#b)" d="m165.3 115 47.4 84.5a9.9 9.9 0 0 0 17.1 0l47.4-84.5c4.2-7.4-1.3-16.5-9.7-16.5H175c-8.4 0-13.9 9.1-9.7 16.5Z" />
</svg>
